<?xml version="1.0" standalone="no"?>
<!DOCTYPE svg PUBLIC "-//W3C//DTD SVG 20010904//EN"
 "http://www.w3.org/TR/2001/REC-SVG-20010904/DTD/svg10.dtd">
<svg version="1.0" xmlns="http://www.w3.org/2000/svg"
 width="640.000000pt" height="640.000000pt" viewBox="0 0 640.000000 640.000000"
 preserveAspectRatio="xMidYMid meet">
<metadata>
Created by potrace 1.14, written by Peter Selinger 2001-2017
</metadata>
<g transform="translate(0.000000,640.000000) scale(0.100000,-0.100000)"
fill="#000000" stroke="none">
<path d="M2830 5153 c-50 -21 -100 -61 -100 -80 0 -11 12 -5 37 21 23 23 54
41 80 48 24 6 43 14 43 19 0 12 -19 10 -60 -8z"/>
<path d="M3612 5002 c-16 -5 4 -32 23 -32 18 0 76 -62 95 -101 17 -35 36 -39
32 -7 -6 48 -117 151 -150 140z"/>
<path d="M2739 4930 c-66 -68 -86 -101 -98 -164 -9 -50 8 -106 34 -106 19 0
19 1 0 36 -22 42 -18 83 11 142 35 71 84 112 133 112 31 0 40 -5 49 -25 7 -14
12 -36 12 -48 0 -18 2 -19 10 -7 11 17 3 88 -12 108 -6 6 -26 12 -45 12 -30 0
-44 -9 -94 -60z"/>
<path d="M2767 4859 c-30 -18 -60 -88 -52 -126 12 -64 59 -48 96 32 23 49 24
69 3 89 -18 19 -23 19 -47 5z"/>
<path d="M3419 4840 c-28 -10 -55 -24 -60 -31 -40 -61 -50 -82 -55 -121 -5
-34 -1 -54 14 -84 23 -45 63 -86 47 -49 -41 101 -35 164 23 222 24 25 41 33
68 33 45 0 93 -21 122 -53 45 -48 41 -158 -6 -206 -30 -30 -79 -54 -93 -46 -5
4 -9 1 -9 -4 0 -17 88 -13 116 6 79 51 94 217 26 283 -67 64 -114 76 -193 50z"/>
<path d="M3436 4705 c-8 -8 -19 -15 -24 -15 -13 0 -22 -35 -22 -87 0 -34 5
-46 24 -58 48 -32 126 27 126 95 0 66 -63 106 -104 65z"/>
<path d="M2100 3211 c-8 -5 -35 -12 -60 -16 -102 -15 -127 -33 -205 -146 -21
-30 -45 -63 -55 -74 -10 -11 -21 -30 -25 -42 -3 -13 -13 -30 -21 -38 -28 -27
-20 -225 11 -285 14 -27 23 -109 13 -125 -20 -35 12 -144 54 -189 10 -11 18
-26 18 -33 0 -8 12 -35 26 -61 14 -25 35 -69 46 -96 23 -60 231 -359 327 -472
46 -54 89 -93 128 -115 52 -30 66 -34 133 -34 77 0 149 17 250 60 30 12 66 26
80 30 28 8 194 88 224 107 11 7 56 36 101 64 l81 52 -5 48 c-8 66 12 106 91
176 54 47 66 64 77 107 15 60 66 157 85 164 9 4 12 14 9 26 -3 12 -1 21 5 21
6 0 13 8 16 18 4 10 23 24 44 31 76 26 92 34 92 46 0 8 -6 16 -12 18 -20 8 12
27 45 27 15 0 27 5 27 10 0 6 6 10 13 10 7 0 23 11 34 24 12 13 27 28 35 32 8
5 27 26 42 47 16 20 33 37 38 37 6 0 19 11 29 24 10 13 38 28 64 35 40 10 63
31 34 31 -6 0 -9 9 -6 20 6 24 -5 26 -23 5 -20 -24 -23 -10 -5 24 17 34 8 42
-14 12 -8 -11 -19 -17 -25 -15 -10 4 -36 -38 -36 -60 0 -6 -9 -22 -19 -35
l-19 -24 -11 21 c-6 12 -16 22 -22 22 -5 0 -3 -13 6 -30 9 -16 11 -30 6 -30
-5 0 -11 5 -13 12 -2 6 -14 -4 -26 -23 -21 -33 -22 -33 -22 -9 0 15 -11 32
-25 43 -28 20 -33 11 -10 -19 21 -28 18 -37 -14 -56 -22 -12 -31 -13 -35 -5
-4 7 -4 1 -1 -13 5 -30 -9 -59 -20 -41 -3 7 -15 9 -24 6 -14 -4 -22 5 -36 42
-10 27 -24 55 -31 64 -8 8 -14 20 -14 25 0 10 -51 66 -101 109 -32 29 -72 49
-164 82 -22 8 -45 21 -52 29 -6 9 -14 11 -17 5 -3 -5 -23 -7 -44 -4 -20 3 -41
5 -47 5 -67 -4 -125 -11 -134 -16 -6 -4 -19 -9 -28 -11 -10 -2 -30 -6 -44 -10
-34 -9 -42 4 -23 39 7 16 14 39 14 52 0 17 7 25 25 29 14 3 36 7 49 10 18 4
25 0 29 -15 3 -11 10 -20 17 -20 6 0 9 4 5 9 -7 12 29 33 39 24 11 -11 7 -41
-6 -46 -8 -3 -6 -6 5 -6 9 -1 18 4 18 9 1 6 2 16 3 23 0 6 11 13 24 15 12 2
22 8 22 14 0 7 5 6 14 -2 8 -6 12 -18 9 -26 -3 -8 0 -14 5 -14 13 0 42 28 42
41 0 5 5 9 10 9 6 0 10 -7 10 -15 0 -27 19 -16 28 17 4 17 14 34 21 36 8 3 11
0 7 -6 -7 -12 3 -62 13 -62 3 0 12 14 19 30 16 35 32 39 33 8 l0 -23 10 23 c5
13 6 29 3 35 -3 7 2 3 11 -8 15 -19 17 -19 26 -2 6 9 14 15 20 12 5 -4 9 1 9
10 0 27 25 11 31 -21 5 -26 6 -24 11 16 2 25 8 53 12 63 6 12 4 17 -9 17 -9 0
-14 -4 -11 -9 3 -4 -5 -6 -17 -4 -12 2 -44 -8 -72 -23 -36 -19 -67 -28 -110
-30 -33 -1 -71 -7 -85 -12 -14 -5 -30 -7 -37 -5 -18 7 -152 -17 -159 -28 -3
-5 -21 -7 -39 -3 -19 3 -40 2 -47 -2 -7 -5 -22 -10 -32 -11 -11 -2 -25 -8 -32
-14 -7 -6 -17 -8 -22 -5 -6 3 -13 -4 -17 -17 -6 -19 -8 -19 -12 -4 -3 13 -15
17 -54 17 -28 0 -59 5 -69 10 -10 6 -31 11 -46 12 -14 2 -34 12 -43 23 -9 11
-29 30 -46 42 -39 27 -189 103 -213 108 -10 2 -34 13 -53 24 -36 22 -129 29
-159 12z m757 -263 c-3 -7 -5 -2 -5 12 0 14 2 19 5 13 2 -7 2 -19 0 -25z
m-717 -39 c0 -21 -31 -41 -56 -36 -13 2 -27 1 -29 -3 -10 -16 -40 -3 -43 18
-4 24 11 29 81 31 27 1 47 -3 47 -10z m190 -43 c64 -33 86 -63 43 -59 -17 2
-125 47 -142 59 -8 7 9 34 22 34 7 0 42 -15 77 -34z m-392 -43 c-14 -16 -34
-38 -44 -50 -19 -24 -44 -31 -44 -12 0 41 83 120 104 98 6 -5 0 -19 -16 -36z
m575 -81 c20 -22 42 -81 33 -89 -13 -14 -82 80 -71 97 9 15 20 12 38 -8z
m-678 -171 c-6 -14 -8 -13 -15 4 -13 31 -11 80 3 94 10 10 13 3 15 -35 2 -25
0 -54 -3 -63z m895 72 c0 -7 -12 -15 -27 -19 -16 -3 -38 -10 -51 -15 -28 -11
-62 -12 -62 -1 0 8 35 33 59 43 25 10 81 4 81 -8z m152 5 c27 -8 38 -16 36
-27 -3 -13 -15 -16 -57 -14 -55 3 -81 15 -81 39 0 17 48 18 102 2z m191 -115
c40 -37 47 -50 42 -70 l-6 -24 -26 23 c-65 57 -92 89 -87 103 10 24 26 17 77
-32z m-1233 -85 c0 -50 -13 -64 -24 -25 -8 30 -8 82 1 90 12 13 23 -17 23 -65z
m1352 -95 c7 -16 12 -43 10 -61 -3 -28 -7 -33 -25 -30 -14 2 -22 11 -23 23 -1
11 -5 37 -9 58 -6 33 -5 37 13 37 13 0 26 -11 34 -27z m-1311 -74 c10 -29 19
-58 19 -64 0 -21 -47 62 -53 93 -11 54 14 34 34 -29z m1324 -130 c-7 -49 -15
-69 -31 -69 -17 0 -18 37 -1 73 17 37 37 35 32 -4z m-1200 -129 c4 -16 -5 -7
-27 25 -39 56 -49 80 -40 89 7 7 57 -77 67 -114z m1148 -9 c-4 -3 -19 -23 -33
-43 -28 -43 -70 -55 -49 -15 16 30 49 72 49 61 0 -4 5 -3 12 4 6 6 15 9 21 5
5 -3 5 -8 0 -12z m-1003 -163 c7 -11 7 -18 1 -18 -15 0 -81 82 -81 99 0 16 58
-43 80 -81z m885 22 c-7 -11 -80 -60 -90 -60 -17 0 0 28 28 47 33 23 73 31 62
13z m-165 -114 c-21 -19 -82 -38 -92 -28 -11 11 49 41 82 42 21 0 22 -2 10
-14z m-600 -32 c27 -20 50 -42 50 -50 0 -17 -5 -17 -32 -3 -37 20 -93 89 -73
89 3 0 27 -16 55 -36z m426 -25 c10 -17 -8 -28 -53 -31 -50 -4 -56 12 -10 29
42 15 54 15 63 2z m-186 -51 c0 -5 -4 -6 -10 -3 -5 3 -10 1 -10 -5 0 -15 -102
-9 -107 7 -3 8 12 13 44 15 57 4 83 -1 83 -14z"/>
<path d="M3510 3146 c-6 -9 -10 -21 -8 -28 3 -8 9 -4 17 10 15 28 9 39 -9 18z"/>
<path d="M3386 2963 c-6 -14 -5 -15 5 -6 7 7 10 15 7 18 -3 3 -9 -2 -12 -12z"/>
<path d="M3417 2913 c-5 -26 -4 -26 9 -8 16 22 18 35 5 35 -5 0 -11 -12 -14
-27z"/>
<path d="M3314 2906 c-8 -9 -7 -15 3 -25 18 -16 21 -12 14 15 -5 17 -9 19 -17
10z"/>
<path d="M3480 2911 c0 -6 4 -13 10 -16 6 -3 7 1 4 9 -7 18 -14 21 -14 7z"/>
<path d="M3437 2883 c-4 -3 -7 -11 -7 -17 0 -6 5 -5 12 2 6 6 9 14 7 17 -3 3
-9 2 -12 -2z"/>
<path d="M3030 1136 c0 -68 -70 -208 -140 -278 -33 -33 -52 -57 -42 -54 9 3
49 8 87 11 39 4 115 14 170 23 l99 17 8 40 c5 22 13 44 18 49 6 6 10 17 10 27
0 9 8 27 18 40 11 13 31 45 46 71 23 40 25 46 9 44 -10 -2 -25 1 -33 5 -16 8
-176 29 -223 29 -22 0 -27 -5 -27 -24z"/>
<path d="M4130 825 c0 -14 2 -25 4 -25 2 0 6 11 8 25 3 14 1 25 -3 25 -5 0 -9
-11 -9 -25z"/>
</g>
</svg>
